<svg width="20" height="20" viewBox="0 0 20 20" fill="none" xmlns="http://www.w3.org/2000/svg">
<g clip-path="url(#clip0_11_15)">
<path d="M2.5 16.6667L3.58333 13.4167C2.64704 12.0319 2.30833 10.392 2.63018 8.80194C2.95204 7.21185 3.91255 5.77975 5.33314 4.77192C6.75373 3.76409 8.53772 3.24911 10.3534 3.32273C12.1691 3.39634 13.8929 4.05355 15.2044 5.17216C16.5159 6.29076 17.3257 7.79464 17.4834 9.40418C17.6411 11.0137 17.1358 12.6194 16.0616 13.9226C14.9873 15.2259 13.4172 16.138 11.6432 16.4895C9.86911 16.8409 8.01184 16.6078 6.41667 15.8334L2.5 16.6667" stroke="#343434" stroke-width="1.25" stroke-linecap="round" stroke-linejoin="round"/>
<path d="M10 10V10.0083" stroke="#343434" stroke-width="1.25" stroke-linecap="round" stroke-linejoin="round"/>
<path d="M6.66663 10V10.0083" stroke="#343434" stroke-width="1.25" stroke-linecap="round" stroke-linejoin="round"/>
<path d="M13.3334 10V10.0083" stroke="#343434" stroke-width="1.25" stroke-linecap="round" stroke-linejoin="round"/>
</g>
<defs>
<clipPath id="clip0_11_15">
<rect width="20" height="20" fill="white"/>
</clipPath>
</defs>
</svg>
