<svg width="142" height="40" viewBox="0 0 142 40" fill="none" xmlns="http://www.w3.org/2000/svg">
<rect width="142" height="40" fill="#4A7EF8"/>
<path d="M47.784 28C47.624 28 47.496 27.952 47.4 27.856C47.304 27.76 47.256 27.632 47.256 27.472V11.752C47.256 11.576 47.304 11.44 47.4 11.344C47.496 11.248 47.624 11.2 47.784 11.2H48.216C48.392 11.2 48.528 11.248 48.624 11.344C48.72 11.44 48.768 11.576 48.768 11.752V17.992L56.04 11.56C56.104 11.512 56.208 11.44 56.352 11.344C56.496 11.248 56.696 11.2 56.952 11.2H57.336C57.464 11.2 57.576 11.248 57.672 11.344C57.768 11.44 57.816 11.552 57.816 11.68C57.816 11.808 57.776 11.912 57.696 11.992L49.56 19.24L58.2 27.184C58.296 27.28 58.344 27.392 58.344 27.52C58.344 27.648 58.296 27.76 58.2 27.856C58.104 27.952 57.992 28 57.864 28H57.456C57.2 28 57 27.952 56.856 27.856C56.712 27.76 56.608 27.688 56.544 27.64L48.768 20.536V27.472C48.768 27.632 48.72 27.76 48.624 27.856C48.528 27.952 48.392 28 48.216 28H47.784ZM63.9446 28.24C63.1766 28.24 62.4646 28.08 61.8086 27.76C61.1686 27.44 60.6486 27.016 60.2486 26.488C59.8486 25.944 59.6486 25.336 59.6486 24.664C59.6486 23.576 60.0886 22.704 60.9686 22.048C61.8486 21.392 62.9926 20.968 64.4006 20.776L68.1926 20.248V19.408C68.1926 18.56 67.9286 17.896 67.4006 17.416C66.8886 16.92 66.0646 16.672 64.9286 16.672C64.0966 16.672 63.4246 16.84 62.9126 17.176C62.4006 17.496 62.0486 17.92 61.8566 18.448C61.7766 18.688 61.6246 18.808 61.4006 18.808H61.0166C60.8246 18.808 60.6886 18.76 60.6086 18.664C60.5286 18.552 60.4886 18.424 60.4886 18.28C60.4886 18.056 60.5686 17.776 60.7286 17.44C60.9046 17.104 61.1686 16.776 61.5206 16.456C61.8726 16.12 62.3286 15.84 62.8886 15.616C63.4486 15.392 64.1286 15.28 64.9286 15.28C65.8726 15.28 66.6486 15.408 67.2566 15.664C67.8806 15.92 68.3606 16.256 68.6966 16.672C69.0486 17.072 69.2966 17.52 69.4406 18.016C69.5846 18.512 69.6566 19 69.6566 19.48V27.472C69.6566 27.632 69.6086 27.76 69.5126 27.856C69.4166 27.952 69.2886 28 69.1286 28H68.7206C68.5606 28 68.4326 27.952 68.3366 27.856C68.2406 27.76 68.1926 27.632 68.1926 27.472V26.344C68.0006 26.632 67.7286 26.92 67.3766 27.208C67.0246 27.496 66.5686 27.744 66.0086 27.952C65.4646 28.144 64.7766 28.24 63.9446 28.24ZM64.1846 26.848C64.9206 26.848 65.5926 26.688 66.2006 26.368C66.8086 26.048 67.2886 25.56 67.6406 24.904C68.0086 24.232 68.1926 23.392 68.1926 22.384V21.568L65.0966 22C63.7846 22.176 62.7926 22.48 62.1206 22.912C61.4486 23.344 61.1126 23.888 61.1126 24.544C61.1126 25.072 61.2646 25.504 61.5686 25.84C61.8726 26.176 62.2566 26.432 62.7206 26.608C63.2006 26.768 63.6886 26.848 64.1846 26.848ZM73.9798 28C73.8198 28 73.6918 27.952 73.5958 27.856C73.4998 27.76 73.4518 27.632 73.4518 27.472V16.048C73.4518 15.888 73.4998 15.76 73.5958 15.664C73.6918 15.568 73.8198 15.52 73.9798 15.52H74.3878C74.5478 15.52 74.6758 15.568 74.7718 15.664C74.8678 15.76 74.9158 15.888 74.9158 16.048V17.176C75.3478 16.616 75.8678 16.16 76.4758 15.808C77.0998 15.456 77.9238 15.28 78.9478 15.28C80.0358 15.28 80.9398 15.52 81.6598 16C82.3958 16.464 82.9398 17.104 83.2918 17.92C83.6598 18.72 83.8438 19.632 83.8438 20.656V27.472C83.8438 27.632 83.7958 27.76 83.6998 27.856C83.6038 27.952 83.4758 28 83.3158 28H82.9078C82.7478 28 82.6198 27.952 82.5238 27.856C82.4278 27.76 82.3798 27.632 82.3798 27.472V20.776C82.3798 19.496 82.0678 18.496 81.4438 17.776C80.8198 17.04 79.9078 16.672 78.7078 16.672C77.5718 16.672 76.6518 17.04 75.9478 17.776C75.2598 18.496 74.9158 19.496 74.9158 20.776V27.472C74.9158 27.632 74.8678 27.76 74.7718 27.856C74.6758 27.952 74.5478 28 74.3878 28H73.9798ZM93.1281 28.24C92.1361 28.24 91.3121 28.064 90.6561 27.712C90.0161 27.344 89.4961 26.888 89.0961 26.344V27.472C89.0961 27.632 89.0481 27.76 88.9521 27.856C88.8561 27.952 88.7281 28 88.5681 28H88.1601C88.0001 28 87.8721 27.952 87.7761 27.856C87.6801 27.76 87.6321 27.632 87.6321 27.472V11.488C87.6321 11.328 87.6801 11.2 87.7761 11.104C87.8721 11.008 88.0001 10.96 88.1601 10.96H88.5681C88.7281 10.96 88.8561 11.008 88.9521 11.104C89.0481 11.2 89.0961 11.328 89.0961 11.488V17.176C89.4961 16.648 90.0161 16.2 90.6561 15.832C91.3121 15.464 92.1361 15.28 93.1281 15.28C94.0721 15.28 94.8641 15.448 95.5041 15.784C96.1441 16.12 96.6641 16.568 97.0641 17.128C97.4641 17.688 97.7601 18.312 97.9521 19C98.1441 19.688 98.2481 20.384 98.2641 21.088C98.2801 21.328 98.2881 21.552 98.2881 21.76C98.2881 21.968 98.2801 22.192 98.2641 22.432C98.2481 23.136 98.1441 23.832 97.9521 24.52C97.7601 25.208 97.4641 25.832 97.0641 26.392C96.6641 26.952 96.1441 27.4 95.5041 27.736C94.8641 28.072 94.0721 28.24 93.1281 28.24ZM92.9841 26.848C93.9281 26.848 94.6721 26.64 95.2161 26.224C95.7601 25.808 96.1521 25.264 96.3921 24.592C96.6321 23.92 96.7681 23.2 96.8001 22.432C96.8161 21.984 96.8161 21.536 96.8001 21.088C96.7681 20.32 96.6321 19.6 96.3921 18.928C96.1521 18.256 95.7601 17.712 95.2161 17.296C94.6721 16.88 93.9281 16.672 92.9841 16.672C92.1041 16.672 91.3761 16.88 90.8001 17.296C90.2401 17.712 89.8161 18.232 89.5281 18.856C89.2561 19.48 89.1121 20.112 89.0961 20.752C89.0801 20.992 89.0721 21.304 89.0721 21.688C89.0721 22.072 89.0801 22.384 89.0961 22.624C89.1281 23.28 89.2721 23.936 89.5281 24.592C89.8001 25.232 90.2161 25.768 90.7761 26.2C91.3361 26.632 92.0721 26.848 92.9841 26.848ZM104.89 28.24C104.122 28.24 103.41 28.08 102.754 27.76C102.114 27.44 101.594 27.016 101.194 26.488C100.794 25.944 100.594 25.336 100.594 24.664C100.594 23.576 101.034 22.704 101.914 22.048C102.794 21.392 103.938 20.968 105.346 20.776L109.138 20.248V19.408C109.138 18.56 108.874 17.896 108.346 17.416C107.834 16.92 107.01 16.672 105.874 16.672C105.042 16.672 104.37 16.84 103.858 17.176C103.346 17.496 102.994 17.92 102.802 18.448C102.722 18.688 102.57 18.808 102.346 18.808H101.962C101.77 18.808 101.634 18.76 101.554 18.664C101.474 18.552 101.434 18.424 101.434 18.28C101.434 18.056 101.514 17.776 101.674 17.44C101.85 17.104 102.114 16.776 102.466 16.456C102.818 16.12 103.274 15.84 103.834 15.616C104.394 15.392 105.074 15.28 105.874 15.28C106.818 15.28 107.594 15.408 108.202 15.664C108.826 15.92 109.306 16.256 109.642 16.672C109.994 17.072 110.242 17.52 110.386 18.016C110.53 18.512 110.602 19 110.602 19.48V27.472C110.602 27.632 110.554 27.76 110.458 27.856C110.362 27.952 110.234 28 110.074 28H109.666C109.506 28 109.378 27.952 109.282 27.856C109.186 27.76 109.138 27.632 109.138 27.472V26.344C108.946 26.632 108.674 26.92 108.322 27.208C107.97 27.496 107.514 27.744 106.954 27.952C106.41 28.144 105.722 28.24 104.89 28.24ZM105.13 26.848C105.866 26.848 106.538 26.688 107.146 26.368C107.754 26.048 108.234 25.56 108.586 24.904C108.954 24.232 109.138 23.392 109.138 22.384V21.568L106.042 22C104.73 22.176 103.738 22.48 103.066 22.912C102.394 23.344 102.058 23.888 102.058 24.544C102.058 25.072 102.21 25.504 102.514 25.84C102.818 26.176 103.202 26.432 103.666 26.608C104.146 26.768 104.634 26.848 105.13 26.848ZM114.925 28C114.765 28 114.637 27.952 114.541 27.856C114.445 27.76 114.397 27.632 114.397 27.472V16.048C114.397 15.888 114.445 15.76 114.541 15.664C114.637 15.568 114.765 15.52 114.925 15.52H115.333C115.493 15.52 115.621 15.568 115.717 15.664C115.813 15.76 115.861 15.888 115.861 16.048V17.176C116.293 16.616 116.813 16.16 117.421 15.808C118.045 15.456 118.869 15.28 119.893 15.28C120.981 15.28 121.885 15.52 122.605 16C123.341 16.464 123.885 17.104 124.237 17.92C124.605 18.72 124.789 19.632 124.789 20.656V27.472C124.789 27.632 124.741 27.76 124.645 27.856C124.549 27.952 124.421 28 124.261 28H123.853C123.693 28 123.565 27.952 123.469 27.856C123.373 27.76 123.325 27.632 123.325 27.472V20.776C123.325 19.496 123.013 18.496 122.389 17.776C121.765 17.04 120.853 16.672 119.653 16.672C118.517 16.672 117.597 17.04 116.893 17.776C116.205 18.496 115.861 19.496 115.861 20.776V27.472C115.861 27.632 115.813 27.76 115.717 27.856C115.621 27.952 115.493 28 115.333 28H114.925Z" fill="white"/>
<g clip-path="url(#clip0_44_26)">
<path d="M19.1666 12.1666H25.4166" stroke="white" stroke-width="1.25" stroke-linecap="round" stroke-linejoin="round"/>
<path d="M29.5834 12.1666H35.8334" stroke="white" stroke-width="1.25" stroke-linecap="round" stroke-linejoin="round"/>
<path d="M23.3333 16.3334H21.25C20.0994 16.3334 19.1666 17.2661 19.1666 18.4167V26.75C19.1666 27.9006 20.0994 28.8334 21.25 28.8334H23.3333C24.4839 28.8334 25.4166 27.9006 25.4166 26.75V18.4167C25.4166 17.2661 24.4839 16.3334 23.3333 16.3334Z" stroke="white" stroke-width="1.25" stroke-linecap="round" stroke-linejoin="round"/>
<path d="M33.75 16.3334H31.6667C30.5161 16.3334 29.5834 17.2661 29.5834 18.4167V20.5C29.5834 21.6506 30.5161 22.5834 31.6667 22.5834H33.75C34.9006 22.5834 35.8334 21.6506 35.8334 20.5V18.4167C35.8334 17.2661 34.9006 16.3334 33.75 16.3334Z" stroke="white" stroke-width="1.25" stroke-linecap="round" stroke-linejoin="round"/>
</g>
<defs>
<clipPath id="clip0_44_26">
<rect width="25" height="25" fill="white" transform="translate(15 8)"/>
</clipPath>
</defs>
</svg>
