<svg width="20" height="20" viewBox="0 0 20 20" fill="none" xmlns="http://www.w3.org/2000/svg">
<g clip-path="url(#clip0_11_25)">
<path d="M5 7.5H10" stroke="#343434" stroke-width="1.25" stroke-linecap="round" stroke-linejoin="round"/>
<path d="M3.33337 4.16669H6.66671" stroke="#343434" stroke-width="1.25" stroke-linecap="round" stroke-linejoin="round"/>
<path d="M5 4.16669V13.3334C5 13.5544 5.0878 13.7663 5.24408 13.9226C5.40036 14.0789 5.61232 14.1667 5.83333 14.1667H10" stroke="#343434" stroke-width="1.25" stroke-linecap="round" stroke-linejoin="round"/>
<path d="M15.8333 5.83331H10.8333C10.3731 5.83331 10 6.20641 10 6.66665V8.33331C10 8.79355 10.3731 9.16665 10.8333 9.16665H15.8333C16.2936 9.16665 16.6667 8.79355 16.6667 8.33331V6.66665C16.6667 6.20641 16.2936 5.83331 15.8333 5.83331Z" stroke="#343434" stroke-width="1.25" stroke-linecap="round" stroke-linejoin="round"/>
<path d="M15.8333 12.5H10.8333C10.3731 12.5 10 12.8731 10 13.3333V15C10 15.4602 10.3731 15.8333 10.8333 15.8333H15.8333C16.2936 15.8333 16.6667 15.4602 16.6667 15V13.3333C16.6667 12.8731 16.2936 12.5 15.8333 12.5Z" stroke="#343434" stroke-width="1.25" stroke-linecap="round" stroke-linejoin="round"/>
</g>
<defs>
<clipPath id="clip0_11_25">
<rect width="20" height="20" fill="white"/>
</clipPath>
</defs>
</svg>
